<mxfile host="Electron" agent="Mozilla/5.0 (Macintosh; Intel Mac OS X 10_15_7) AppleWebKit/537.36 (KHTML, like Gecko) draw.io/24.7.17 Chrome/128.0.6613.36 Electron/32.0.1 Safari/537.36" version="24.7.17">
  <diagram name="Page-1" id="aEoQRzq-7ZlI66f20KiE">
    <mxGraphModel dx="2043" dy="736" grid="1" gridSize="10" guides="1" tooltips="1" connect="1" arrows="1" fold="1" page="1" pageScale="1" pageWidth="850" pageHeight="1100" math="0" shadow="0">
      <root>
        <mxCell id="0" />
        <mxCell id="1" parent="0" />
        <mxCell id="TdxxpBxdUY28s5HQA3Qr-1" value="user_t" style="shape=table;startSize=30;container=1;collapsible=1;childLayout=tableLayout;fixedRows=1;rowLines=0;fontStyle=1;align=center;resizeLast=1;swimlaneLine=1;shadow=1;fillColor=#60a917;fontColor=#ffffff;strokeColor=#2D7600;" parent="1" vertex="1">
          <mxGeometry x="-760" y="240" width="240.0000000000001" height="240" as="geometry" />
        </mxCell>
        <mxCell id="TdxxpBxdUY28s5HQA3Qr-2" value="" style="shape=tableRow;horizontal=0;startSize=0;swimlaneHead=0;swimlaneBody=0;collapsible=0;dropTarget=0;points=[[0,0.5],[1,0.5]];portConstraint=eastwest;top=0;left=0;right=0;bottom=1;swimlaneLine=1;shadow=1;fillColor=#f5f5f5;fontColor=#333333;strokeColor=#666666;" parent="TdxxpBxdUY28s5HQA3Qr-1" vertex="1">
          <mxGeometry y="30" width="240.0000000000001" height="30" as="geometry" />
        </mxCell>
        <mxCell id="TdxxpBxdUY28s5HQA3Qr-3" value="PK" style="shape=partialRectangle;overflow=hidden;connectable=0;top=0;left=0;bottom=0;right=0;fontStyle=1;swimlaneLine=1;shadow=1;fillColor=#f5f5f5;fontColor=#333333;strokeColor=#666666;" parent="TdxxpBxdUY28s5HQA3Qr-2" vertex="1">
          <mxGeometry width="30" height="30" as="geometry">
            <mxRectangle width="30" height="30" as="alternateBounds" />
          </mxGeometry>
        </mxCell>
        <mxCell id="TdxxpBxdUY28s5HQA3Qr-4" value="NID" style="shape=partialRectangle;overflow=hidden;connectable=0;align=left;top=0;left=0;bottom=0;right=0;spacingLeft=6;fontStyle=5;swimlaneLine=1;shadow=1;fillColor=#f5f5f5;fontColor=#333333;strokeColor=#666666;" parent="TdxxpBxdUY28s5HQA3Qr-2" vertex="1">
          <mxGeometry x="30" width="210.0000000000001" height="30" as="geometry">
            <mxRectangle width="210.0000000000001" height="30" as="alternateBounds" />
          </mxGeometry>
        </mxCell>
        <mxCell id="TdxxpBxdUY28s5HQA3Qr-5" value="" style="shape=tableRow;horizontal=0;startSize=0;swimlaneHead=0;swimlaneBody=0;collapsible=0;dropTarget=0;points=[[0,0.5],[1,0.5]];portConstraint=eastwest;top=0;left=0;right=0;bottom=0;swimlaneLine=1;shadow=1;fillColor=#f5f5f5;fontColor=#333333;strokeColor=#666666;" parent="TdxxpBxdUY28s5HQA3Qr-1" vertex="1">
          <mxGeometry y="60" width="240.0000000000001" height="30" as="geometry" />
        </mxCell>
        <mxCell id="TdxxpBxdUY28s5HQA3Qr-6" value="" style="shape=partialRectangle;overflow=hidden;connectable=0;top=0;left=0;bottom=0;right=0;swimlaneLine=1;shadow=1;fillColor=#f5f5f5;fontColor=#333333;strokeColor=#666666;" parent="TdxxpBxdUY28s5HQA3Qr-5" vertex="1">
          <mxGeometry width="30" height="30" as="geometry">
            <mxRectangle width="30" height="30" as="alternateBounds" />
          </mxGeometry>
        </mxCell>
        <mxCell id="TdxxpBxdUY28s5HQA3Qr-7" value="Name (First, Last)" style="shape=partialRectangle;overflow=hidden;connectable=0;align=left;top=0;left=0;bottom=0;right=0;spacingLeft=6;swimlaneLine=1;shadow=1;fillColor=#f5f5f5;fontColor=#333333;strokeColor=#666666;" parent="TdxxpBxdUY28s5HQA3Qr-5" vertex="1">
          <mxGeometry x="30" width="210.0000000000001" height="30" as="geometry">
            <mxRectangle width="210.0000000000001" height="30" as="alternateBounds" />
          </mxGeometry>
        </mxCell>
        <mxCell id="TdxxpBxdUY28s5HQA3Qr-11" value="" style="shape=tableRow;horizontal=0;startSize=0;swimlaneHead=0;swimlaneBody=0;collapsible=0;dropTarget=0;points=[[0,0.5],[1,0.5]];portConstraint=eastwest;top=0;left=0;right=0;bottom=0;swimlaneLine=1;shadow=1;fillColor=#f5f5f5;fontColor=#333333;strokeColor=#666666;" parent="TdxxpBxdUY28s5HQA3Qr-1" vertex="1">
          <mxGeometry y="90" width="240.0000000000001" height="30" as="geometry" />
        </mxCell>
        <mxCell id="TdxxpBxdUY28s5HQA3Qr-12" value="" style="shape=partialRectangle;overflow=hidden;connectable=0;top=0;left=0;bottom=0;right=0;swimlaneLine=1;shadow=1;fillColor=#f5f5f5;fontColor=#333333;strokeColor=#666666;" parent="TdxxpBxdUY28s5HQA3Qr-11" vertex="1">
          <mxGeometry width="30" height="30" as="geometry">
            <mxRectangle width="30" height="30" as="alternateBounds" />
          </mxGeometry>
        </mxCell>
        <mxCell id="TdxxpBxdUY28s5HQA3Qr-13" value="Email" style="shape=partialRectangle;overflow=hidden;connectable=0;align=left;top=0;left=0;bottom=0;right=0;spacingLeft=6;swimlaneLine=1;shadow=1;fillColor=#f5f5f5;fontColor=#333333;strokeColor=#666666;" parent="TdxxpBxdUY28s5HQA3Qr-11" vertex="1">
          <mxGeometry x="30" width="210.0000000000001" height="30" as="geometry">
            <mxRectangle width="210.0000000000001" height="30" as="alternateBounds" />
          </mxGeometry>
        </mxCell>
        <mxCell id="TdxxpBxdUY28s5HQA3Qr-14" value="" style="shape=tableRow;horizontal=0;startSize=0;swimlaneHead=0;swimlaneBody=0;collapsible=0;dropTarget=0;points=[[0,0.5],[1,0.5]];portConstraint=eastwest;top=0;left=0;right=0;bottom=0;swimlaneLine=1;shadow=1;fillColor=#f5f5f5;fontColor=#333333;strokeColor=#666666;" parent="TdxxpBxdUY28s5HQA3Qr-1" vertex="1">
          <mxGeometry y="120" width="240.0000000000001" height="30" as="geometry" />
        </mxCell>
        <mxCell id="TdxxpBxdUY28s5HQA3Qr-15" value="" style="shape=partialRectangle;overflow=hidden;connectable=0;top=0;left=0;bottom=0;right=0;swimlaneLine=1;shadow=1;fillColor=#f5f5f5;fontColor=#333333;strokeColor=#666666;" parent="TdxxpBxdUY28s5HQA3Qr-14" vertex="1">
          <mxGeometry width="30" height="30" as="geometry">
            <mxRectangle width="30" height="30" as="alternateBounds" />
          </mxGeometry>
        </mxCell>
        <mxCell id="TdxxpBxdUY28s5HQA3Qr-16" value="Phone" style="shape=partialRectangle;overflow=hidden;connectable=0;align=left;top=0;left=0;bottom=0;right=0;spacingLeft=6;swimlaneLine=1;shadow=1;fillColor=#f5f5f5;fontColor=#333333;strokeColor=#666666;" parent="TdxxpBxdUY28s5HQA3Qr-14" vertex="1">
          <mxGeometry x="30" width="210.0000000000001" height="30" as="geometry">
            <mxRectangle width="210.0000000000001" height="30" as="alternateBounds" />
          </mxGeometry>
        </mxCell>
        <mxCell id="TdxxpBxdUY28s5HQA3Qr-17" value="" style="shape=tableRow;horizontal=0;startSize=0;swimlaneHead=0;swimlaneBody=0;collapsible=0;dropTarget=0;points=[[0,0.5],[1,0.5]];portConstraint=eastwest;top=0;left=0;right=0;bottom=0;swimlaneLine=1;shadow=1;fillColor=#f5f5f5;fontColor=#333333;strokeColor=#666666;" parent="TdxxpBxdUY28s5HQA3Qr-1" vertex="1">
          <mxGeometry y="150" width="240.0000000000001" height="30" as="geometry" />
        </mxCell>
        <mxCell id="TdxxpBxdUY28s5HQA3Qr-18" value="" style="shape=partialRectangle;overflow=hidden;connectable=0;top=0;left=0;bottom=0;right=0;swimlaneLine=1;shadow=1;fillColor=#f5f5f5;fontColor=#333333;strokeColor=#666666;" parent="TdxxpBxdUY28s5HQA3Qr-17" vertex="1">
          <mxGeometry width="30" height="30" as="geometry">
            <mxRectangle width="30" height="30" as="alternateBounds" />
          </mxGeometry>
        </mxCell>
        <mxCell id="TdxxpBxdUY28s5HQA3Qr-19" value="Address" style="shape=partialRectangle;overflow=hidden;connectable=0;align=left;top=0;left=0;bottom=0;right=0;spacingLeft=6;swimlaneLine=1;shadow=1;fillColor=#f5f5f5;fontColor=#333333;strokeColor=#666666;" parent="TdxxpBxdUY28s5HQA3Qr-17" vertex="1">
          <mxGeometry x="30" width="210.0000000000001" height="30" as="geometry">
            <mxRectangle width="210.0000000000001" height="30" as="alternateBounds" />
          </mxGeometry>
        </mxCell>
        <mxCell id="TdxxpBxdUY28s5HQA3Qr-20" value="" style="shape=tableRow;horizontal=0;startSize=0;swimlaneHead=0;swimlaneBody=0;collapsible=0;dropTarget=0;points=[[0,0.5],[1,0.5]];portConstraint=eastwest;top=0;left=0;right=0;bottom=0;swimlaneLine=1;shadow=1;fillColor=#f5f5f5;fontColor=#333333;strokeColor=#666666;" parent="TdxxpBxdUY28s5HQA3Qr-1" vertex="1">
          <mxGeometry y="180" width="240.0000000000001" height="30" as="geometry" />
        </mxCell>
        <mxCell id="TdxxpBxdUY28s5HQA3Qr-21" value="" style="shape=partialRectangle;overflow=hidden;connectable=0;top=0;left=0;bottom=0;right=0;swimlaneLine=1;shadow=1;fillColor=#f5f5f5;fontColor=#333333;strokeColor=#666666;" parent="TdxxpBxdUY28s5HQA3Qr-20" vertex="1">
          <mxGeometry width="30" height="30" as="geometry">
            <mxRectangle width="30" height="30" as="alternateBounds" />
          </mxGeometry>
        </mxCell>
        <mxCell id="TdxxpBxdUY28s5HQA3Qr-22" value="Password" style="shape=partialRectangle;overflow=hidden;connectable=0;align=left;top=0;left=0;bottom=0;right=0;spacingLeft=6;swimlaneLine=1;shadow=1;fillColor=#f5f5f5;fontColor=#333333;strokeColor=#666666;" parent="TdxxpBxdUY28s5HQA3Qr-20" vertex="1">
          <mxGeometry x="30" width="210.0000000000001" height="30" as="geometry">
            <mxRectangle width="210.0000000000001" height="30" as="alternateBounds" />
          </mxGeometry>
        </mxCell>
        <mxCell id="TdxxpBxdUY28s5HQA3Qr-238" value="" style="shape=tableRow;horizontal=0;startSize=0;swimlaneHead=0;swimlaneBody=0;collapsible=0;dropTarget=0;points=[[0,0.5],[1,0.5]];portConstraint=eastwest;top=0;left=0;right=0;bottom=0;swimlaneLine=1;shadow=1;fillColor=#f5f5f5;fontColor=#333333;strokeColor=#666666;" parent="TdxxpBxdUY28s5HQA3Qr-1" vertex="1">
          <mxGeometry y="210" width="240.0000000000001" height="30" as="geometry" />
        </mxCell>
        <mxCell id="TdxxpBxdUY28s5HQA3Qr-239" value="" style="shape=partialRectangle;overflow=hidden;connectable=0;top=0;left=0;bottom=0;right=0;swimlaneLine=1;shadow=1;fillColor=#f5f5f5;fontColor=#333333;strokeColor=#666666;" parent="TdxxpBxdUY28s5HQA3Qr-238" vertex="1">
          <mxGeometry width="30" height="30" as="geometry">
            <mxRectangle width="30" height="30" as="alternateBounds" />
          </mxGeometry>
        </mxCell>
        <mxCell id="TdxxpBxdUY28s5HQA3Qr-240" value="Picture" style="shape=partialRectangle;overflow=hidden;connectable=0;align=left;top=0;left=0;bottom=0;right=0;spacingLeft=6;swimlaneLine=1;shadow=1;fillColor=#f5f5f5;fontColor=#333333;strokeColor=#666666;" parent="TdxxpBxdUY28s5HQA3Qr-238" vertex="1">
          <mxGeometry x="30" width="210.0000000000001" height="30" as="geometry">
            <mxRectangle width="210.0000000000001" height="30" as="alternateBounds" />
          </mxGeometry>
        </mxCell>
        <mxCell id="TdxxpBxdUY28s5HQA3Qr-32" value="iot_utility_t" style="shape=table;startSize=30;container=1;collapsible=1;childLayout=tableLayout;fixedRows=1;rowLines=0;fontStyle=1;align=center;resizeLast=1;swimlaneLine=1;shadow=1;fillColor=#60a917;fontColor=#ffffff;strokeColor=#2D7600;" parent="1" vertex="1">
          <mxGeometry y="410" width="240" height="210" as="geometry" />
        </mxCell>
        <mxCell id="TdxxpBxdUY28s5HQA3Qr-33" value="" style="shape=tableRow;horizontal=0;startSize=0;swimlaneHead=0;swimlaneBody=0;collapsible=0;dropTarget=0;points=[[0,0.5],[1,0.5]];portConstraint=eastwest;top=0;left=0;right=0;bottom=1;swimlaneLine=1;shadow=1;fillColor=#f5f5f5;fontColor=#333333;strokeColor=#666666;" parent="TdxxpBxdUY28s5HQA3Qr-32" vertex="1">
          <mxGeometry y="30" width="240" height="30" as="geometry" />
        </mxCell>
        <mxCell id="TdxxpBxdUY28s5HQA3Qr-34" value="PK" style="shape=partialRectangle;overflow=hidden;connectable=0;top=0;left=0;bottom=0;right=0;fontStyle=1;swimlaneLine=1;shadow=1;fillColor=#f5f5f5;fontColor=#333333;strokeColor=#666666;" parent="TdxxpBxdUY28s5HQA3Qr-33" vertex="1">
          <mxGeometry width="30" height="30" as="geometry">
            <mxRectangle width="30" height="30" as="alternateBounds" />
          </mxGeometry>
        </mxCell>
        <mxCell id="TdxxpBxdUY28s5HQA3Qr-35" value="IoTID" style="shape=partialRectangle;overflow=hidden;connectable=0;align=left;top=0;left=0;bottom=0;right=0;spacingLeft=6;fontStyle=5;swimlaneLine=1;shadow=1;fillColor=#f5f5f5;fontColor=#333333;strokeColor=#666666;" parent="TdxxpBxdUY28s5HQA3Qr-33" vertex="1">
          <mxGeometry x="30" width="210" height="30" as="geometry">
            <mxRectangle width="210" height="30" as="alternateBounds" />
          </mxGeometry>
        </mxCell>
        <mxCell id="TdxxpBxdUY28s5HQA3Qr-36" value="" style="shape=tableRow;horizontal=0;startSize=0;swimlaneHead=0;swimlaneBody=0;collapsible=0;dropTarget=0;points=[[0,0.5],[1,0.5]];portConstraint=eastwest;top=0;left=0;right=0;bottom=0;swimlaneLine=1;shadow=1;fillColor=#f5f5f5;fontColor=#333333;strokeColor=#666666;" parent="TdxxpBxdUY28s5HQA3Qr-32" vertex="1">
          <mxGeometry y="60" width="240" height="30" as="geometry" />
        </mxCell>
        <mxCell id="TdxxpBxdUY28s5HQA3Qr-37" value="" style="shape=partialRectangle;overflow=hidden;connectable=0;top=0;left=0;bottom=0;right=0;swimlaneLine=1;shadow=1;fillColor=#f5f5f5;fontColor=#333333;strokeColor=#666666;" parent="TdxxpBxdUY28s5HQA3Qr-36" vertex="1">
          <mxGeometry width="30" height="30" as="geometry">
            <mxRectangle width="30" height="30" as="alternateBounds" />
          </mxGeometry>
        </mxCell>
        <mxCell id="TdxxpBxdUY28s5HQA3Qr-38" value="Label" style="shape=partialRectangle;overflow=hidden;connectable=0;align=left;top=0;left=0;bottom=0;right=0;spacingLeft=6;swimlaneLine=1;shadow=1;fillColor=#f5f5f5;fontColor=#333333;strokeColor=#666666;" parent="TdxxpBxdUY28s5HQA3Qr-36" vertex="1">
          <mxGeometry x="30" width="210" height="30" as="geometry">
            <mxRectangle width="210" height="30" as="alternateBounds" />
          </mxGeometry>
        </mxCell>
        <mxCell id="TdxxpBxdUY28s5HQA3Qr-39" value="" style="shape=tableRow;horizontal=0;startSize=0;swimlaneHead=0;swimlaneBody=0;collapsible=0;dropTarget=0;points=[[0,0.5],[1,0.5]];portConstraint=eastwest;top=0;left=0;right=0;bottom=0;swimlaneLine=1;shadow=1;fillColor=#f5f5f5;fontColor=#333333;strokeColor=#666666;" parent="TdxxpBxdUY28s5HQA3Qr-32" vertex="1">
          <mxGeometry y="90" width="240" height="30" as="geometry" />
        </mxCell>
        <mxCell id="TdxxpBxdUY28s5HQA3Qr-40" value="" style="shape=partialRectangle;overflow=hidden;connectable=0;top=0;left=0;bottom=0;right=0;swimlaneLine=1;shadow=1;fillColor=#f5f5f5;fontColor=#333333;strokeColor=#666666;" parent="TdxxpBxdUY28s5HQA3Qr-39" vertex="1">
          <mxGeometry width="30" height="30" as="geometry">
            <mxRectangle width="30" height="30" as="alternateBounds" />
          </mxGeometry>
        </mxCell>
        <mxCell id="TdxxpBxdUY28s5HQA3Qr-41" value="GeoLocation(Latitude, Longitude)" style="shape=partialRectangle;overflow=hidden;connectable=0;align=left;top=0;left=0;bottom=0;right=0;spacingLeft=6;swimlaneLine=1;shadow=1;fillColor=#f5f5f5;fontColor=#333333;strokeColor=#666666;" parent="TdxxpBxdUY28s5HQA3Qr-39" vertex="1">
          <mxGeometry x="30" width="210" height="30" as="geometry">
            <mxRectangle width="210" height="30" as="alternateBounds" />
          </mxGeometry>
        </mxCell>
        <mxCell id="TdxxpBxdUY28s5HQA3Qr-45" value="" style="shape=tableRow;horizontal=0;startSize=0;swimlaneHead=0;swimlaneBody=0;collapsible=0;dropTarget=0;points=[[0,0.5],[1,0.5]];portConstraint=eastwest;top=0;left=0;right=0;bottom=0;swimlaneLine=1;shadow=1;fillColor=#f5f5f5;fontColor=#333333;strokeColor=#666666;" parent="TdxxpBxdUY28s5HQA3Qr-32" vertex="1">
          <mxGeometry y="120" width="240" height="30" as="geometry" />
        </mxCell>
        <mxCell id="TdxxpBxdUY28s5HQA3Qr-46" value="" style="shape=partialRectangle;overflow=hidden;connectable=0;top=0;left=0;bottom=0;right=0;swimlaneLine=1;shadow=1;fillColor=#f5f5f5;fontColor=#333333;strokeColor=#666666;" parent="TdxxpBxdUY28s5HQA3Qr-45" vertex="1">
          <mxGeometry width="30" height="30" as="geometry">
            <mxRectangle width="30" height="30" as="alternateBounds" />
          </mxGeometry>
        </mxCell>
        <mxCell id="TdxxpBxdUY28s5HQA3Qr-47" value="CostPerUnit" style="shape=partialRectangle;overflow=hidden;connectable=0;align=left;top=0;left=0;bottom=0;right=0;spacingLeft=6;swimlaneLine=1;shadow=1;fillColor=#f5f5f5;fontColor=#333333;strokeColor=#666666;" parent="TdxxpBxdUY28s5HQA3Qr-45" vertex="1">
          <mxGeometry x="30" width="210" height="30" as="geometry">
            <mxRectangle width="210" height="30" as="alternateBounds" />
          </mxGeometry>
        </mxCell>
        <mxCell id="TdxxpBxdUY28s5HQA3Qr-269" value="" style="shape=tableRow;horizontal=0;startSize=0;swimlaneHead=0;swimlaneBody=0;collapsible=0;dropTarget=0;points=[[0,0.5],[1,0.5]];portConstraint=eastwest;top=0;left=0;right=0;bottom=0;swimlaneLine=1;shadow=1;fillColor=#f5f5f5;fontColor=#333333;strokeColor=#666666;" parent="TdxxpBxdUY28s5HQA3Qr-32" vertex="1">
          <mxGeometry y="150" width="240" height="30" as="geometry" />
        </mxCell>
        <mxCell id="TdxxpBxdUY28s5HQA3Qr-270" value="" style="shape=partialRectangle;overflow=hidden;connectable=0;top=0;left=0;bottom=0;right=0;swimlaneLine=1;shadow=1;fillColor=#f5f5f5;fontColor=#333333;strokeColor=#666666;" parent="TdxxpBxdUY28s5HQA3Qr-269" vertex="1">
          <mxGeometry width="30" height="30" as="geometry">
            <mxRectangle width="30" height="30" as="alternateBounds" />
          </mxGeometry>
        </mxCell>
        <mxCell id="TdxxpBxdUY28s5HQA3Qr-271" value="Status" style="shape=partialRectangle;overflow=hidden;connectable=0;align=left;top=0;left=0;bottom=0;right=0;spacingLeft=6;swimlaneLine=1;shadow=1;fillColor=#f5f5f5;fontColor=#333333;strokeColor=#666666;" parent="TdxxpBxdUY28s5HQA3Qr-269" vertex="1">
          <mxGeometry x="30" width="210" height="30" as="geometry">
            <mxRectangle width="210" height="30" as="alternateBounds" />
          </mxGeometry>
        </mxCell>
        <mxCell id="TdxxpBxdUY28s5HQA3Qr-274" value="" style="shape=tableRow;horizontal=0;startSize=0;swimlaneHead=0;swimlaneBody=0;collapsible=0;dropTarget=0;points=[[0,0.5],[1,0.5]];portConstraint=eastwest;top=0;left=0;right=0;bottom=0;swimlaneLine=1;shadow=1;fillColor=#f5f5f5;fontColor=#333333;strokeColor=#666666;" parent="TdxxpBxdUY28s5HQA3Qr-32" vertex="1">
          <mxGeometry y="180" width="240" height="30" as="geometry" />
        </mxCell>
        <mxCell id="TdxxpBxdUY28s5HQA3Qr-275" value="" style="shape=partialRectangle;overflow=hidden;connectable=0;top=0;left=0;bottom=0;right=0;swimlaneLine=1;shadow=1;fillColor=#f5f5f5;fontColor=#333333;strokeColor=#666666;" parent="TdxxpBxdUY28s5HQA3Qr-274" vertex="1">
          <mxGeometry width="30" height="30" as="geometry">
            <mxRectangle width="30" height="30" as="alternateBounds" />
          </mxGeometry>
        </mxCell>
        <mxCell id="TdxxpBxdUY28s5HQA3Qr-276" value="Type" style="shape=partialRectangle;overflow=hidden;connectable=0;align=left;top=0;left=0;bottom=0;right=0;spacingLeft=6;swimlaneLine=1;shadow=1;fillColor=#f5f5f5;fontColor=#333333;strokeColor=#666666;" parent="TdxxpBxdUY28s5HQA3Qr-274" vertex="1">
          <mxGeometry x="30" width="210" height="30" as="geometry">
            <mxRectangle width="210" height="30" as="alternateBounds" />
          </mxGeometry>
        </mxCell>
        <mxCell id="TdxxpBxdUY28s5HQA3Qr-48" value="usage_t" style="shape=table;startSize=30;container=1;collapsible=1;childLayout=tableLayout;fixedRows=1;rowLines=0;fontStyle=1;align=center;resizeLast=1;swimlaneLine=1;shadow=1;fillColor=#60a917;fontColor=#ffffff;strokeColor=#2D7600;" parent="1" vertex="1">
          <mxGeometry x="-360" y="80" width="240" height="210" as="geometry" />
        </mxCell>
        <mxCell id="TdxxpBxdUY28s5HQA3Qr-55" value="" style="shape=tableRow;horizontal=0;startSize=0;swimlaneHead=0;swimlaneBody=0;collapsible=0;dropTarget=0;points=[[0,0.5],[1,0.5]];portConstraint=eastwest;top=0;left=0;right=0;bottom=1;swimlaneLine=1;shadow=1;fillColor=#f5f5f5;fontColor=#333333;strokeColor=#666666;fontStyle=0" parent="TdxxpBxdUY28s5HQA3Qr-48" vertex="1">
          <mxGeometry y="30" width="240" height="30" as="geometry" />
        </mxCell>
        <mxCell id="TdxxpBxdUY28s5HQA3Qr-56" value="PK" style="shape=partialRectangle;overflow=hidden;connectable=0;top=0;left=0;bottom=0;right=0;fontStyle=1;swimlaneLine=1;shadow=1;fillColor=#f5f5f5;fontColor=#333333;strokeColor=#666666;" parent="TdxxpBxdUY28s5HQA3Qr-55" vertex="1">
          <mxGeometry width="30" height="30" as="geometry">
            <mxRectangle width="30" height="30" as="alternateBounds" />
          </mxGeometry>
        </mxCell>
        <mxCell id="TdxxpBxdUY28s5HQA3Qr-57" value="UsageID" style="shape=partialRectangle;overflow=hidden;connectable=0;align=left;top=0;left=0;bottom=0;right=0;spacingLeft=6;fontStyle=5;swimlaneLine=1;shadow=1;fillColor=#f5f5f5;fontColor=#333333;strokeColor=#666666;" parent="TdxxpBxdUY28s5HQA3Qr-55" vertex="1">
          <mxGeometry x="30" width="210" height="30" as="geometry">
            <mxRectangle width="210" height="30" as="alternateBounds" />
          </mxGeometry>
        </mxCell>
        <mxCell id="TdxxpBxdUY28s5HQA3Qr-52" value="" style="shape=tableRow;horizontal=0;startSize=0;swimlaneHead=0;swimlaneBody=0;collapsible=0;dropTarget=0;points=[[0,0.5],[1,0.5]];portConstraint=eastwest;top=0;left=0;right=0;bottom=1;swimlaneLine=1;shadow=1;fillColor=#f5f5f5;fontColor=#333333;strokeColor=#666666;fontStyle=0" parent="TdxxpBxdUY28s5HQA3Qr-48" vertex="1">
          <mxGeometry y="60" width="240" height="30" as="geometry" />
        </mxCell>
        <mxCell id="TdxxpBxdUY28s5HQA3Qr-53" value="FK" style="shape=partialRectangle;overflow=hidden;connectable=0;top=0;left=0;bottom=0;right=0;fontStyle=0;swimlaneLine=1;shadow=1;fillColor=#f5f5f5;fontColor=#333333;strokeColor=#666666;" parent="TdxxpBxdUY28s5HQA3Qr-52" vertex="1">
          <mxGeometry width="30" height="30" as="geometry">
            <mxRectangle width="30" height="30" as="alternateBounds" />
          </mxGeometry>
        </mxCell>
        <mxCell id="TdxxpBxdUY28s5HQA3Qr-54" value="NID" style="shape=partialRectangle;overflow=hidden;connectable=0;align=left;top=0;left=0;bottom=0;right=0;spacingLeft=6;fontStyle=0;swimlaneLine=1;shadow=1;fillColor=#f5f5f5;fontColor=#333333;strokeColor=#666666;" parent="TdxxpBxdUY28s5HQA3Qr-52" vertex="1">
          <mxGeometry x="30" width="210" height="30" as="geometry">
            <mxRectangle width="210" height="30" as="alternateBounds" />
          </mxGeometry>
        </mxCell>
        <mxCell id="TdxxpBxdUY28s5HQA3Qr-49" value="" style="shape=tableRow;horizontal=0;startSize=0;swimlaneHead=0;swimlaneBody=0;collapsible=0;dropTarget=0;points=[[0,0.5],[1,0.5]];portConstraint=eastwest;top=0;left=0;right=0;bottom=1;swimlaneLine=1;shadow=1;fillColor=#f5f5f5;fontColor=#333333;strokeColor=#666666;fontStyle=0" parent="TdxxpBxdUY28s5HQA3Qr-48" vertex="1">
          <mxGeometry y="90" width="240" height="30" as="geometry" />
        </mxCell>
        <mxCell id="TdxxpBxdUY28s5HQA3Qr-50" value="FK" style="shape=partialRectangle;overflow=hidden;connectable=0;top=0;left=0;bottom=0;right=0;fontStyle=0;swimlaneLine=1;shadow=1;fillColor=#f5f5f5;fontColor=#333333;strokeColor=#666666;" parent="TdxxpBxdUY28s5HQA3Qr-49" vertex="1">
          <mxGeometry width="30" height="30" as="geometry">
            <mxRectangle width="30" height="30" as="alternateBounds" />
          </mxGeometry>
        </mxCell>
        <mxCell id="TdxxpBxdUY28s5HQA3Qr-51" value="IoTID" style="shape=partialRectangle;overflow=hidden;connectable=0;align=left;top=0;left=0;bottom=0;right=0;spacingLeft=6;fontStyle=0;swimlaneLine=1;shadow=1;fillColor=#f5f5f5;fontColor=#333333;strokeColor=#666666;" parent="TdxxpBxdUY28s5HQA3Qr-49" vertex="1">
          <mxGeometry x="30" width="210" height="30" as="geometry">
            <mxRectangle width="210" height="30" as="alternateBounds" />
          </mxGeometry>
        </mxCell>
        <mxCell id="TdxxpBxdUY28s5HQA3Qr-58" value="" style="shape=tableRow;horizontal=0;startSize=0;swimlaneHead=0;swimlaneBody=0;collapsible=0;dropTarget=0;points=[[0,0.5],[1,0.5]];portConstraint=eastwest;top=0;left=0;right=0;bottom=0;swimlaneLine=1;shadow=1;fillColor=#f5f5f5;fontColor=#333333;strokeColor=#666666;fontStyle=0" parent="TdxxpBxdUY28s5HQA3Qr-48" vertex="1">
          <mxGeometry y="120" width="240" height="30" as="geometry" />
        </mxCell>
        <mxCell id="TdxxpBxdUY28s5HQA3Qr-59" value="" style="shape=partialRectangle;overflow=hidden;connectable=0;top=0;left=0;bottom=0;right=0;swimlaneLine=1;shadow=1;fillColor=#f5f5f5;fontColor=#333333;strokeColor=#666666;fontStyle=0" parent="TdxxpBxdUY28s5HQA3Qr-58" vertex="1">
          <mxGeometry width="30" height="30" as="geometry">
            <mxRectangle width="30" height="30" as="alternateBounds" />
          </mxGeometry>
        </mxCell>
        <mxCell id="TdxxpBxdUY28s5HQA3Qr-60" value="Time" style="shape=partialRectangle;overflow=hidden;connectable=0;align=left;top=0;left=0;bottom=0;right=0;spacingLeft=6;swimlaneLine=1;shadow=1;fillColor=#f5f5f5;fontColor=#333333;strokeColor=#666666;fontStyle=0" parent="TdxxpBxdUY28s5HQA3Qr-58" vertex="1">
          <mxGeometry x="30" width="210" height="30" as="geometry">
            <mxRectangle width="210" height="30" as="alternateBounds" />
          </mxGeometry>
        </mxCell>
        <mxCell id="TdxxpBxdUY28s5HQA3Qr-61" value="" style="shape=tableRow;horizontal=0;startSize=0;swimlaneHead=0;swimlaneBody=0;collapsible=0;dropTarget=0;points=[[0,0.5],[1,0.5]];portConstraint=eastwest;top=0;left=0;right=0;bottom=0;swimlaneLine=1;shadow=1;fillColor=#f5f5f5;fontColor=#333333;strokeColor=#666666;fontStyle=0" parent="TdxxpBxdUY28s5HQA3Qr-48" vertex="1">
          <mxGeometry y="150" width="240" height="30" as="geometry" />
        </mxCell>
        <mxCell id="TdxxpBxdUY28s5HQA3Qr-62" value="" style="shape=partialRectangle;overflow=hidden;connectable=0;top=0;left=0;bottom=0;right=0;swimlaneLine=1;shadow=1;fillColor=#f5f5f5;fontColor=#333333;strokeColor=#666666;fontStyle=0" parent="TdxxpBxdUY28s5HQA3Qr-61" vertex="1">
          <mxGeometry width="30" height="30" as="geometry">
            <mxRectangle width="30" height="30" as="alternateBounds" />
          </mxGeometry>
        </mxCell>
        <mxCell id="TdxxpBxdUY28s5HQA3Qr-63" value="Date" style="shape=partialRectangle;overflow=hidden;connectable=0;align=left;top=0;left=0;bottom=0;right=0;spacingLeft=6;swimlaneLine=1;shadow=1;fillColor=#f5f5f5;fontColor=#333333;strokeColor=#666666;fontStyle=0" parent="TdxxpBxdUY28s5HQA3Qr-61" vertex="1">
          <mxGeometry x="30" width="210" height="30" as="geometry">
            <mxRectangle width="210" height="30" as="alternateBounds" />
          </mxGeometry>
        </mxCell>
        <mxCell id="TdxxpBxdUY28s5HQA3Qr-64" value="" style="shape=tableRow;horizontal=0;startSize=0;swimlaneHead=0;swimlaneBody=0;collapsible=0;dropTarget=0;points=[[0,0.5],[1,0.5]];portConstraint=eastwest;top=0;left=0;right=0;bottom=0;swimlaneLine=1;shadow=1;fillColor=#f5f5f5;fontColor=#333333;strokeColor=#666666;fontStyle=0" parent="TdxxpBxdUY28s5HQA3Qr-48" vertex="1">
          <mxGeometry y="180" width="240" height="30" as="geometry" />
        </mxCell>
        <mxCell id="TdxxpBxdUY28s5HQA3Qr-65" value="" style="shape=partialRectangle;overflow=hidden;connectable=0;top=0;left=0;bottom=0;right=0;swimlaneLine=1;shadow=1;fillColor=#f5f5f5;fontColor=#333333;strokeColor=#666666;fontStyle=0" parent="TdxxpBxdUY28s5HQA3Qr-64" vertex="1">
          <mxGeometry width="30" height="30" as="geometry">
            <mxRectangle width="30" height="30" as="alternateBounds" />
          </mxGeometry>
        </mxCell>
        <mxCell id="TdxxpBxdUY28s5HQA3Qr-66" value="UsageAmount" style="shape=partialRectangle;overflow=hidden;connectable=0;align=left;top=0;left=0;bottom=0;right=0;spacingLeft=6;swimlaneLine=1;shadow=1;fillColor=#f5f5f5;fontColor=#333333;strokeColor=#666666;fontStyle=0" parent="TdxxpBxdUY28s5HQA3Qr-64" vertex="1">
          <mxGeometry x="30" width="210" height="30" as="geometry">
            <mxRectangle width="210" height="30" as="alternateBounds" />
          </mxGeometry>
        </mxCell>
        <mxCell id="TdxxpBxdUY28s5HQA3Qr-79" value="balance_t" style="shape=table;startSize=30;container=1;collapsible=1;childLayout=tableLayout;fixedRows=1;rowLines=0;fontStyle=1;align=center;resizeLast=1;swimlaneLine=1;shadow=1;fillColor=#60a917;fontColor=#ffffff;strokeColor=#2D7600;" parent="1" vertex="1">
          <mxGeometry x="-360" y="440" width="240" height="150" as="geometry" />
        </mxCell>
        <mxCell id="TdxxpBxdUY28s5HQA3Qr-86" value="" style="shape=tableRow;horizontal=0;startSize=0;swimlaneHead=0;swimlaneBody=0;collapsible=0;dropTarget=0;points=[[0,0.5],[1,0.5]];portConstraint=eastwest;top=0;left=0;right=0;bottom=1;swimlaneLine=1;shadow=1;fillColor=#f5f5f5;fontColor=#333333;strokeColor=#666666;" parent="TdxxpBxdUY28s5HQA3Qr-79" vertex="1">
          <mxGeometry y="30" width="240" height="30" as="geometry" />
        </mxCell>
        <mxCell id="TdxxpBxdUY28s5HQA3Qr-87" value="PK" style="shape=partialRectangle;overflow=hidden;connectable=0;top=0;left=0;bottom=0;right=0;fontStyle=1;swimlaneLine=1;shadow=1;fillColor=#f5f5f5;fontColor=#333333;strokeColor=#666666;" parent="TdxxpBxdUY28s5HQA3Qr-86" vertex="1">
          <mxGeometry width="30" height="30" as="geometry">
            <mxRectangle width="30" height="30" as="alternateBounds" />
          </mxGeometry>
        </mxCell>
        <mxCell id="TdxxpBxdUY28s5HQA3Qr-88" value="BalanceID" style="shape=partialRectangle;overflow=hidden;connectable=0;align=left;top=0;left=0;bottom=0;right=0;spacingLeft=6;fontStyle=5;swimlaneLine=1;shadow=1;fillColor=#f5f5f5;fontColor=#333333;strokeColor=#666666;" parent="TdxxpBxdUY28s5HQA3Qr-86" vertex="1">
          <mxGeometry x="30" width="210" height="30" as="geometry">
            <mxRectangle width="210" height="30" as="alternateBounds" />
          </mxGeometry>
        </mxCell>
        <mxCell id="TdxxpBxdUY28s5HQA3Qr-83" value="" style="shape=tableRow;horizontal=0;startSize=0;swimlaneHead=0;swimlaneBody=0;collapsible=0;dropTarget=0;points=[[0,0.5],[1,0.5]];portConstraint=eastwest;top=0;left=0;right=0;bottom=1;swimlaneLine=1;shadow=1;fillColor=#f5f5f5;fontColor=#333333;strokeColor=#666666;" parent="TdxxpBxdUY28s5HQA3Qr-79" vertex="1">
          <mxGeometry y="60" width="240" height="30" as="geometry" />
        </mxCell>
        <mxCell id="TdxxpBxdUY28s5HQA3Qr-84" value="FK" style="shape=partialRectangle;overflow=hidden;connectable=0;top=0;left=0;bottom=0;right=0;fontStyle=0;swimlaneLine=1;shadow=1;fillColor=#f5f5f5;fontColor=#333333;strokeColor=#666666;" parent="TdxxpBxdUY28s5HQA3Qr-83" vertex="1">
          <mxGeometry width="30" height="30" as="geometry">
            <mxRectangle width="30" height="30" as="alternateBounds" />
          </mxGeometry>
        </mxCell>
        <mxCell id="TdxxpBxdUY28s5HQA3Qr-85" value="NID" style="shape=partialRectangle;overflow=hidden;connectable=0;align=left;top=0;left=0;bottom=0;right=0;spacingLeft=6;fontStyle=0;swimlaneLine=1;shadow=1;fillColor=#f5f5f5;fontColor=#333333;strokeColor=#666666;" parent="TdxxpBxdUY28s5HQA3Qr-83" vertex="1">
          <mxGeometry x="30" width="210" height="30" as="geometry">
            <mxRectangle width="210" height="30" as="alternateBounds" />
          </mxGeometry>
        </mxCell>
        <mxCell id="TdxxpBxdUY28s5HQA3Qr-80" value="" style="shape=tableRow;horizontal=0;startSize=0;swimlaneHead=0;swimlaneBody=0;collapsible=0;dropTarget=0;points=[[0,0.5],[1,0.5]];portConstraint=eastwest;top=0;left=0;right=0;bottom=1;swimlaneLine=1;shadow=1;fillColor=#f5f5f5;fontColor=#333333;strokeColor=#666666;" parent="TdxxpBxdUY28s5HQA3Qr-79" vertex="1">
          <mxGeometry y="90" width="240" height="30" as="geometry" />
        </mxCell>
        <mxCell id="TdxxpBxdUY28s5HQA3Qr-81" value="FK" style="shape=partialRectangle;overflow=hidden;connectable=0;top=0;left=0;bottom=0;right=0;fontStyle=0;swimlaneLine=1;shadow=1;fillColor=#f5f5f5;fontColor=#333333;strokeColor=#666666;" parent="TdxxpBxdUY28s5HQA3Qr-80" vertex="1">
          <mxGeometry width="30" height="30" as="geometry">
            <mxRectangle width="30" height="30" as="alternateBounds" />
          </mxGeometry>
        </mxCell>
        <mxCell id="TdxxpBxdUY28s5HQA3Qr-82" value="IoTID" style="shape=partialRectangle;overflow=hidden;connectable=0;align=left;top=0;left=0;bottom=0;right=0;spacingLeft=6;fontStyle=0;swimlaneLine=1;shadow=1;fillColor=#f5f5f5;fontColor=#333333;strokeColor=#666666;" parent="TdxxpBxdUY28s5HQA3Qr-80" vertex="1">
          <mxGeometry x="30" width="210" height="30" as="geometry">
            <mxRectangle width="210" height="30" as="alternateBounds" />
          </mxGeometry>
        </mxCell>
        <mxCell id="TdxxpBxdUY28s5HQA3Qr-89" value="" style="shape=tableRow;horizontal=0;startSize=0;swimlaneHead=0;swimlaneBody=0;collapsible=0;dropTarget=0;points=[[0,0.5],[1,0.5]];portConstraint=eastwest;top=0;left=0;right=0;bottom=0;swimlaneLine=1;shadow=1;fillColor=#f5f5f5;fontColor=#333333;strokeColor=#666666;" parent="TdxxpBxdUY28s5HQA3Qr-79" vertex="1">
          <mxGeometry y="120" width="240" height="30" as="geometry" />
        </mxCell>
        <mxCell id="TdxxpBxdUY28s5HQA3Qr-90" value="" style="shape=partialRectangle;overflow=hidden;connectable=0;top=0;left=0;bottom=0;right=0;swimlaneLine=1;shadow=1;fillColor=#f5f5f5;fontColor=#333333;strokeColor=#666666;" parent="TdxxpBxdUY28s5HQA3Qr-89" vertex="1">
          <mxGeometry width="30" height="30" as="geometry">
            <mxRectangle width="30" height="30" as="alternateBounds" />
          </mxGeometry>
        </mxCell>
        <mxCell id="TdxxpBxdUY28s5HQA3Qr-91" value="Balance" style="shape=partialRectangle;overflow=hidden;connectable=0;align=left;top=0;left=0;bottom=0;right=0;spacingLeft=6;swimlaneLine=1;shadow=1;fillColor=#f5f5f5;fontColor=#333333;strokeColor=#666666;" parent="TdxxpBxdUY28s5HQA3Qr-89" vertex="1">
          <mxGeometry x="30" width="210" height="30" as="geometry">
            <mxRectangle width="210" height="30" as="alternateBounds" />
          </mxGeometry>
        </mxCell>
        <mxCell id="TdxxpBxdUY28s5HQA3Qr-104" value="recharge_t" style="shape=table;startSize=30;container=1;collapsible=1;childLayout=tableLayout;fixedRows=1;rowLines=0;fontStyle=1;align=center;resizeLast=1;swimlaneLine=1;shadow=1;fillColor=#60a917;fontColor=#ffffff;strokeColor=#2D7600;" parent="1" vertex="1">
          <mxGeometry x="-360" y="720" width="240" height="210" as="geometry" />
        </mxCell>
        <mxCell id="TdxxpBxdUY28s5HQA3Qr-111" value="" style="shape=tableRow;horizontal=0;startSize=0;swimlaneHead=0;swimlaneBody=0;collapsible=0;dropTarget=0;points=[[0,0.5],[1,0.5]];portConstraint=eastwest;top=0;left=0;right=0;bottom=1;swimlaneLine=1;shadow=1;fillColor=#f5f5f5;fontColor=#333333;strokeColor=#666666;" parent="TdxxpBxdUY28s5HQA3Qr-104" vertex="1">
          <mxGeometry y="30" width="240" height="30" as="geometry" />
        </mxCell>
        <mxCell id="TdxxpBxdUY28s5HQA3Qr-112" value="PK" style="shape=partialRectangle;overflow=hidden;connectable=0;top=0;left=0;bottom=0;right=0;fontStyle=1;swimlaneLine=1;shadow=1;fillColor=#f5f5f5;fontColor=#333333;strokeColor=#666666;" parent="TdxxpBxdUY28s5HQA3Qr-111" vertex="1">
          <mxGeometry width="30" height="30" as="geometry">
            <mxRectangle width="30" height="30" as="alternateBounds" />
          </mxGeometry>
        </mxCell>
        <mxCell id="TdxxpBxdUY28s5HQA3Qr-113" value="RechargeID" style="shape=partialRectangle;overflow=hidden;connectable=0;align=left;top=0;left=0;bottom=0;right=0;spacingLeft=6;fontStyle=5;swimlaneLine=1;shadow=1;fillColor=#f5f5f5;fontColor=#333333;strokeColor=#666666;" parent="TdxxpBxdUY28s5HQA3Qr-111" vertex="1">
          <mxGeometry x="30" width="210" height="30" as="geometry">
            <mxRectangle width="210" height="30" as="alternateBounds" />
          </mxGeometry>
        </mxCell>
        <mxCell id="TdxxpBxdUY28s5HQA3Qr-108" value="" style="shape=tableRow;horizontal=0;startSize=0;swimlaneHead=0;swimlaneBody=0;collapsible=0;dropTarget=0;points=[[0,0.5],[1,0.5]];portConstraint=eastwest;top=0;left=0;right=0;bottom=1;swimlaneLine=1;shadow=1;fillColor=#f5f5f5;fontColor=#333333;strokeColor=#666666;" parent="TdxxpBxdUY28s5HQA3Qr-104" vertex="1">
          <mxGeometry y="60" width="240" height="30" as="geometry" />
        </mxCell>
        <mxCell id="TdxxpBxdUY28s5HQA3Qr-109" value="FK" style="shape=partialRectangle;overflow=hidden;connectable=0;top=0;left=0;bottom=0;right=0;fontStyle=0;swimlaneLine=1;shadow=1;fillColor=#f5f5f5;fontColor=#333333;strokeColor=#666666;" parent="TdxxpBxdUY28s5HQA3Qr-108" vertex="1">
          <mxGeometry width="30" height="30" as="geometry">
            <mxRectangle width="30" height="30" as="alternateBounds" />
          </mxGeometry>
        </mxCell>
        <mxCell id="TdxxpBxdUY28s5HQA3Qr-110" value="NID" style="shape=partialRectangle;overflow=hidden;connectable=0;align=left;top=0;left=0;bottom=0;right=0;spacingLeft=6;fontStyle=0;swimlaneLine=1;shadow=1;fillColor=#f5f5f5;fontColor=#333333;strokeColor=#666666;" parent="TdxxpBxdUY28s5HQA3Qr-108" vertex="1">
          <mxGeometry x="30" width="210" height="30" as="geometry">
            <mxRectangle width="210" height="30" as="alternateBounds" />
          </mxGeometry>
        </mxCell>
        <mxCell id="TdxxpBxdUY28s5HQA3Qr-105" value="" style="shape=tableRow;horizontal=0;startSize=0;swimlaneHead=0;swimlaneBody=0;collapsible=0;dropTarget=0;points=[[0,0.5],[1,0.5]];portConstraint=eastwest;top=0;left=0;right=0;bottom=1;swimlaneLine=1;shadow=1;fillColor=#f5f5f5;fontColor=#333333;strokeColor=#666666;" parent="TdxxpBxdUY28s5HQA3Qr-104" vertex="1">
          <mxGeometry y="90" width="240" height="30" as="geometry" />
        </mxCell>
        <mxCell id="TdxxpBxdUY28s5HQA3Qr-106" value="FK" style="shape=partialRectangle;overflow=hidden;connectable=0;top=0;left=0;bottom=0;right=0;fontStyle=0;swimlaneLine=1;shadow=1;fillColor=#f5f5f5;fontColor=#333333;strokeColor=#666666;" parent="TdxxpBxdUY28s5HQA3Qr-105" vertex="1">
          <mxGeometry width="30" height="30" as="geometry">
            <mxRectangle width="30" height="30" as="alternateBounds" />
          </mxGeometry>
        </mxCell>
        <mxCell id="TdxxpBxdUY28s5HQA3Qr-107" value="IoTID" style="shape=partialRectangle;overflow=hidden;connectable=0;align=left;top=0;left=0;bottom=0;right=0;spacingLeft=6;fontStyle=0;swimlaneLine=1;shadow=1;fillColor=#f5f5f5;fontColor=#333333;strokeColor=#666666;" parent="TdxxpBxdUY28s5HQA3Qr-105" vertex="1">
          <mxGeometry x="30" width="210" height="30" as="geometry">
            <mxRectangle width="210" height="30" as="alternateBounds" />
          </mxGeometry>
        </mxCell>
        <mxCell id="TdxxpBxdUY28s5HQA3Qr-114" value="" style="shape=tableRow;horizontal=0;startSize=0;swimlaneHead=0;swimlaneBody=0;collapsible=0;dropTarget=0;points=[[0,0.5],[1,0.5]];portConstraint=eastwest;top=0;left=0;right=0;bottom=0;swimlaneLine=1;shadow=1;fillColor=#f5f5f5;fontColor=#333333;strokeColor=#666666;" parent="TdxxpBxdUY28s5HQA3Qr-104" vertex="1">
          <mxGeometry y="120" width="240" height="30" as="geometry" />
        </mxCell>
        <mxCell id="TdxxpBxdUY28s5HQA3Qr-115" value="" style="shape=partialRectangle;overflow=hidden;connectable=0;top=0;left=0;bottom=0;right=0;swimlaneLine=1;shadow=1;fillColor=#f5f5f5;fontColor=#333333;strokeColor=#666666;" parent="TdxxpBxdUY28s5HQA3Qr-114" vertex="1">
          <mxGeometry width="30" height="30" as="geometry">
            <mxRectangle width="30" height="30" as="alternateBounds" />
          </mxGeometry>
        </mxCell>
        <mxCell id="TdxxpBxdUY28s5HQA3Qr-116" value="RechargeAmount" style="shape=partialRectangle;overflow=hidden;connectable=0;align=left;top=0;left=0;bottom=0;right=0;spacingLeft=6;swimlaneLine=1;shadow=1;fillColor=#f5f5f5;fontColor=#333333;strokeColor=#666666;" parent="TdxxpBxdUY28s5HQA3Qr-114" vertex="1">
          <mxGeometry x="30" width="210" height="30" as="geometry">
            <mxRectangle width="210" height="30" as="alternateBounds" />
          </mxGeometry>
        </mxCell>
        <mxCell id="TdxxpBxdUY28s5HQA3Qr-117" value="" style="shape=tableRow;horizontal=0;startSize=0;swimlaneHead=0;swimlaneBody=0;collapsible=0;dropTarget=0;points=[[0,0.5],[1,0.5]];portConstraint=eastwest;top=0;left=0;right=0;bottom=0;swimlaneLine=1;shadow=1;fillColor=#f5f5f5;fontColor=#333333;strokeColor=#666666;" parent="TdxxpBxdUY28s5HQA3Qr-104" vertex="1">
          <mxGeometry y="150" width="240" height="30" as="geometry" />
        </mxCell>
        <mxCell id="TdxxpBxdUY28s5HQA3Qr-118" value="" style="shape=partialRectangle;overflow=hidden;connectable=0;top=0;left=0;bottom=0;right=0;swimlaneLine=1;shadow=1;fillColor=#f5f5f5;fontColor=#333333;strokeColor=#666666;" parent="TdxxpBxdUY28s5HQA3Qr-117" vertex="1">
          <mxGeometry width="30" height="30" as="geometry">
            <mxRectangle width="30" height="30" as="alternateBounds" />
          </mxGeometry>
        </mxCell>
        <mxCell id="TdxxpBxdUY28s5HQA3Qr-119" value="Time" style="shape=partialRectangle;overflow=hidden;connectable=0;align=left;top=0;left=0;bottom=0;right=0;spacingLeft=6;swimlaneLine=1;shadow=1;fillColor=#f5f5f5;fontColor=#333333;strokeColor=#666666;" parent="TdxxpBxdUY28s5HQA3Qr-117" vertex="1">
          <mxGeometry x="30" width="210" height="30" as="geometry">
            <mxRectangle width="210" height="30" as="alternateBounds" />
          </mxGeometry>
        </mxCell>
        <mxCell id="TdxxpBxdUY28s5HQA3Qr-120" value="" style="shape=tableRow;horizontal=0;startSize=0;swimlaneHead=0;swimlaneBody=0;collapsible=0;dropTarget=0;points=[[0,0.5],[1,0.5]];portConstraint=eastwest;top=0;left=0;right=0;bottom=0;swimlaneLine=1;shadow=1;fillColor=#f5f5f5;fontColor=#333333;strokeColor=#666666;" parent="TdxxpBxdUY28s5HQA3Qr-104" vertex="1">
          <mxGeometry y="180" width="240" height="30" as="geometry" />
        </mxCell>
        <mxCell id="TdxxpBxdUY28s5HQA3Qr-121" value="" style="shape=partialRectangle;overflow=hidden;connectable=0;top=0;left=0;bottom=0;right=0;swimlaneLine=1;shadow=1;fillColor=#f5f5f5;fontColor=#333333;strokeColor=#666666;" parent="TdxxpBxdUY28s5HQA3Qr-120" vertex="1">
          <mxGeometry width="30" height="30" as="geometry">
            <mxRectangle width="30" height="30" as="alternateBounds" />
          </mxGeometry>
        </mxCell>
        <mxCell id="TdxxpBxdUY28s5HQA3Qr-122" value="Date" style="shape=partialRectangle;overflow=hidden;connectable=0;align=left;top=0;left=0;bottom=0;right=0;spacingLeft=6;swimlaneLine=1;shadow=1;fillColor=#f5f5f5;fontColor=#333333;strokeColor=#666666;" parent="TdxxpBxdUY28s5HQA3Qr-120" vertex="1">
          <mxGeometry x="30" width="210" height="30" as="geometry">
            <mxRectangle width="210" height="30" as="alternateBounds" />
          </mxGeometry>
        </mxCell>
        <mxCell id="TdxxpBxdUY28s5HQA3Qr-135" value="notification_t" style="shape=table;startSize=30;container=1;collapsible=1;childLayout=tableLayout;fixedRows=1;rowLines=0;fontStyle=1;align=center;resizeLast=1;swimlaneLine=1;shadow=1;fillColor=#60a917;fontColor=#ffffff;strokeColor=#2D7600;" parent="1" vertex="1">
          <mxGeometry x="-760" y="600" width="239.99999999999977" height="270" as="geometry" />
        </mxCell>
        <mxCell id="TdxxpBxdUY28s5HQA3Qr-139" value="" style="shape=tableRow;horizontal=0;startSize=0;swimlaneHead=0;swimlaneBody=0;collapsible=0;dropTarget=0;points=[[0,0.5],[1,0.5]];portConstraint=eastwest;top=0;left=0;right=0;bottom=1;swimlaneLine=1;shadow=1;fillColor=#f5f5f5;fontColor=#333333;strokeColor=#666666;" parent="TdxxpBxdUY28s5HQA3Qr-135" vertex="1">
          <mxGeometry y="30" width="239.99999999999977" height="30" as="geometry" />
        </mxCell>
        <mxCell id="TdxxpBxdUY28s5HQA3Qr-140" value="PK" style="shape=partialRectangle;overflow=hidden;connectable=0;top=0;left=0;bottom=0;right=0;fontStyle=1;swimlaneLine=1;shadow=1;fillColor=#f5f5f5;fontColor=#333333;strokeColor=#666666;" parent="TdxxpBxdUY28s5HQA3Qr-139" vertex="1">
          <mxGeometry width="30" height="30" as="geometry">
            <mxRectangle width="30" height="30" as="alternateBounds" />
          </mxGeometry>
        </mxCell>
        <mxCell id="TdxxpBxdUY28s5HQA3Qr-141" value="NotificationID" style="shape=partialRectangle;overflow=hidden;connectable=0;align=left;top=0;left=0;bottom=0;right=0;spacingLeft=6;fontStyle=5;swimlaneLine=1;shadow=1;fillColor=#f5f5f5;fontColor=#333333;strokeColor=#666666;" parent="TdxxpBxdUY28s5HQA3Qr-139" vertex="1">
          <mxGeometry x="30" width="209.99999999999977" height="30" as="geometry">
            <mxRectangle width="209.99999999999977" height="30" as="alternateBounds" />
          </mxGeometry>
        </mxCell>
        <mxCell id="TdxxpBxdUY28s5HQA3Qr-136" value="" style="shape=tableRow;horizontal=0;startSize=0;swimlaneHead=0;swimlaneBody=0;collapsible=0;dropTarget=0;points=[[0,0.5],[1,0.5]];portConstraint=eastwest;top=0;left=0;right=0;bottom=1;swimlaneLine=1;shadow=1;fillColor=#f5f5f5;fontColor=#333333;strokeColor=#666666;" parent="TdxxpBxdUY28s5HQA3Qr-135" vertex="1">
          <mxGeometry y="60" width="239.99999999999977" height="30" as="geometry" />
        </mxCell>
        <mxCell id="TdxxpBxdUY28s5HQA3Qr-137" value="FK" style="shape=partialRectangle;overflow=hidden;connectable=0;top=0;left=0;bottom=0;right=0;fontStyle=0;swimlaneLine=1;shadow=1;fillColor=#f5f5f5;fontColor=#333333;strokeColor=#666666;" parent="TdxxpBxdUY28s5HQA3Qr-136" vertex="1">
          <mxGeometry width="30" height="30" as="geometry">
            <mxRectangle width="30" height="30" as="alternateBounds" />
          </mxGeometry>
        </mxCell>
        <mxCell id="TdxxpBxdUY28s5HQA3Qr-138" value="NID" style="shape=partialRectangle;overflow=hidden;connectable=0;align=left;top=0;left=0;bottom=0;right=0;spacingLeft=6;fontStyle=0;swimlaneLine=1;shadow=1;fillColor=#f5f5f5;fontColor=#333333;strokeColor=#666666;" parent="TdxxpBxdUY28s5HQA3Qr-136" vertex="1">
          <mxGeometry x="30" width="209.99999999999977" height="30" as="geometry">
            <mxRectangle width="209.99999999999977" height="30" as="alternateBounds" />
          </mxGeometry>
        </mxCell>
        <mxCell id="zKBm1QHpImw86RAVw3xl-9" value="" style="shape=tableRow;horizontal=0;startSize=0;swimlaneHead=0;swimlaneBody=0;collapsible=0;dropTarget=0;points=[[0,0.5],[1,0.5]];portConstraint=eastwest;top=0;left=0;right=0;bottom=1;swimlaneLine=1;shadow=1;fillColor=#f5f5f5;fontColor=#333333;strokeColor=#666666;" vertex="1" parent="TdxxpBxdUY28s5HQA3Qr-135">
          <mxGeometry y="90" width="239.99999999999977" height="30" as="geometry" />
        </mxCell>
        <mxCell id="zKBm1QHpImw86RAVw3xl-10" value="FK" style="shape=partialRectangle;overflow=hidden;connectable=0;top=0;left=0;bottom=0;right=0;fontStyle=0;swimlaneLine=1;shadow=1;fillColor=#f5f5f5;fontColor=#333333;strokeColor=#666666;" vertex="1" parent="zKBm1QHpImw86RAVw3xl-9">
          <mxGeometry width="30" height="30" as="geometry">
            <mxRectangle width="30" height="30" as="alternateBounds" />
          </mxGeometry>
        </mxCell>
        <mxCell id="zKBm1QHpImw86RAVw3xl-11" value="OutageID" style="shape=partialRectangle;overflow=hidden;connectable=0;align=left;top=0;left=0;bottom=0;right=0;spacingLeft=6;fontStyle=0;swimlaneLine=1;shadow=1;fillColor=#f5f5f5;fontColor=#333333;strokeColor=#666666;" vertex="1" parent="zKBm1QHpImw86RAVw3xl-9">
          <mxGeometry x="30" width="209.99999999999977" height="30" as="geometry">
            <mxRectangle width="209.99999999999977" height="30" as="alternateBounds" />
          </mxGeometry>
        </mxCell>
        <mxCell id="TdxxpBxdUY28s5HQA3Qr-142" value="" style="shape=tableRow;horizontal=0;startSize=0;swimlaneHead=0;swimlaneBody=0;collapsible=0;dropTarget=0;points=[[0,0.5],[1,0.5]];portConstraint=eastwest;top=0;left=0;right=0;bottom=0;swimlaneLine=1;shadow=1;fillColor=#f5f5f5;fontColor=#333333;strokeColor=#666666;" parent="TdxxpBxdUY28s5HQA3Qr-135" vertex="1">
          <mxGeometry y="120" width="239.99999999999977" height="30" as="geometry" />
        </mxCell>
        <mxCell id="TdxxpBxdUY28s5HQA3Qr-143" value="" style="shape=partialRectangle;overflow=hidden;connectable=0;top=0;left=0;bottom=0;right=0;swimlaneLine=1;shadow=1;fillColor=#f5f5f5;fontColor=#333333;strokeColor=#666666;" parent="TdxxpBxdUY28s5HQA3Qr-142" vertex="1">
          <mxGeometry width="30" height="30" as="geometry">
            <mxRectangle width="30" height="30" as="alternateBounds" />
          </mxGeometry>
        </mxCell>
        <mxCell id="TdxxpBxdUY28s5HQA3Qr-144" value="Time" style="shape=partialRectangle;overflow=hidden;connectable=0;align=left;top=0;left=0;bottom=0;right=0;spacingLeft=6;swimlaneLine=1;shadow=1;fillColor=#f5f5f5;fontColor=#333333;strokeColor=#666666;" parent="TdxxpBxdUY28s5HQA3Qr-142" vertex="1">
          <mxGeometry x="30" width="209.99999999999977" height="30" as="geometry">
            <mxRectangle width="209.99999999999977" height="30" as="alternateBounds" />
          </mxGeometry>
        </mxCell>
        <mxCell id="TdxxpBxdUY28s5HQA3Qr-145" value="" style="shape=tableRow;horizontal=0;startSize=0;swimlaneHead=0;swimlaneBody=0;collapsible=0;dropTarget=0;points=[[0,0.5],[1,0.5]];portConstraint=eastwest;top=0;left=0;right=0;bottom=0;swimlaneLine=1;shadow=1;fillColor=#f5f5f5;fontColor=#333333;strokeColor=#666666;" parent="TdxxpBxdUY28s5HQA3Qr-135" vertex="1">
          <mxGeometry y="150" width="239.99999999999977" height="30" as="geometry" />
        </mxCell>
        <mxCell id="TdxxpBxdUY28s5HQA3Qr-146" value="" style="shape=partialRectangle;overflow=hidden;connectable=0;top=0;left=0;bottom=0;right=0;swimlaneLine=1;shadow=1;fillColor=#f5f5f5;fontColor=#333333;strokeColor=#666666;" parent="TdxxpBxdUY28s5HQA3Qr-145" vertex="1">
          <mxGeometry width="30" height="30" as="geometry">
            <mxRectangle width="30" height="30" as="alternateBounds" />
          </mxGeometry>
        </mxCell>
        <mxCell id="TdxxpBxdUY28s5HQA3Qr-147" value="Date" style="shape=partialRectangle;overflow=hidden;connectable=0;align=left;top=0;left=0;bottom=0;right=0;spacingLeft=6;swimlaneLine=1;shadow=1;fillColor=#f5f5f5;fontColor=#333333;strokeColor=#666666;" parent="TdxxpBxdUY28s5HQA3Qr-145" vertex="1">
          <mxGeometry x="30" width="209.99999999999977" height="30" as="geometry">
            <mxRectangle width="209.99999999999977" height="30" as="alternateBounds" />
          </mxGeometry>
        </mxCell>
        <mxCell id="TdxxpBxdUY28s5HQA3Qr-148" value="" style="shape=tableRow;horizontal=0;startSize=0;swimlaneHead=0;swimlaneBody=0;collapsible=0;dropTarget=0;points=[[0,0.5],[1,0.5]];portConstraint=eastwest;top=0;left=0;right=0;bottom=0;swimlaneLine=1;shadow=1;fillColor=#f5f5f5;fontColor=#333333;strokeColor=#666666;" parent="TdxxpBxdUY28s5HQA3Qr-135" vertex="1">
          <mxGeometry y="180" width="239.99999999999977" height="30" as="geometry" />
        </mxCell>
        <mxCell id="TdxxpBxdUY28s5HQA3Qr-149" value="" style="shape=partialRectangle;overflow=hidden;connectable=0;top=0;left=0;bottom=0;right=0;swimlaneLine=1;shadow=1;fillColor=#f5f5f5;fontColor=#333333;strokeColor=#666666;" parent="TdxxpBxdUY28s5HQA3Qr-148" vertex="1">
          <mxGeometry width="30" height="30" as="geometry">
            <mxRectangle width="30" height="30" as="alternateBounds" />
          </mxGeometry>
        </mxCell>
        <mxCell id="TdxxpBxdUY28s5HQA3Qr-150" value="Type" style="shape=partialRectangle;overflow=hidden;connectable=0;align=left;top=0;left=0;bottom=0;right=0;spacingLeft=6;swimlaneLine=1;shadow=1;fillColor=#f5f5f5;fontColor=#333333;strokeColor=#666666;" parent="TdxxpBxdUY28s5HQA3Qr-148" vertex="1">
          <mxGeometry x="30" width="209.99999999999977" height="30" as="geometry">
            <mxRectangle width="209.99999999999977" height="30" as="alternateBounds" />
          </mxGeometry>
        </mxCell>
        <mxCell id="TdxxpBxdUY28s5HQA3Qr-151" value="" style="shape=tableRow;horizontal=0;startSize=0;swimlaneHead=0;swimlaneBody=0;collapsible=0;dropTarget=0;points=[[0,0.5],[1,0.5]];portConstraint=eastwest;top=0;left=0;right=0;bottom=0;swimlaneLine=1;shadow=1;fillColor=#f5f5f5;fontColor=#333333;strokeColor=#666666;" parent="TdxxpBxdUY28s5HQA3Qr-135" vertex="1">
          <mxGeometry y="210" width="239.99999999999977" height="30" as="geometry" />
        </mxCell>
        <mxCell id="TdxxpBxdUY28s5HQA3Qr-152" value="" style="shape=partialRectangle;overflow=hidden;connectable=0;top=0;left=0;bottom=0;right=0;swimlaneLine=1;shadow=1;fillColor=#f5f5f5;fontColor=#333333;strokeColor=#666666;" parent="TdxxpBxdUY28s5HQA3Qr-151" vertex="1">
          <mxGeometry width="30" height="30" as="geometry">
            <mxRectangle width="30" height="30" as="alternateBounds" />
          </mxGeometry>
        </mxCell>
        <mxCell id="TdxxpBxdUY28s5HQA3Qr-153" value="Header" style="shape=partialRectangle;overflow=hidden;connectable=0;align=left;top=0;left=0;bottom=0;right=0;spacingLeft=6;swimlaneLine=1;shadow=1;fillColor=#f5f5f5;fontColor=#333333;strokeColor=#666666;" parent="TdxxpBxdUY28s5HQA3Qr-151" vertex="1">
          <mxGeometry x="30" width="209.99999999999977" height="30" as="geometry">
            <mxRectangle width="209.99999999999977" height="30" as="alternateBounds" />
          </mxGeometry>
        </mxCell>
        <mxCell id="TdxxpBxdUY28s5HQA3Qr-154" value="" style="shape=tableRow;horizontal=0;startSize=0;swimlaneHead=0;swimlaneBody=0;collapsible=0;dropTarget=0;points=[[0,0.5],[1,0.5]];portConstraint=eastwest;top=0;left=0;right=0;bottom=0;swimlaneLine=1;shadow=1;fillColor=#f5f5f5;fontColor=#333333;strokeColor=#666666;" parent="TdxxpBxdUY28s5HQA3Qr-135" vertex="1">
          <mxGeometry y="240" width="239.99999999999977" height="30" as="geometry" />
        </mxCell>
        <mxCell id="TdxxpBxdUY28s5HQA3Qr-155" value="" style="shape=partialRectangle;overflow=hidden;connectable=0;top=0;left=0;bottom=0;right=0;swimlaneLine=1;shadow=1;fillColor=#f5f5f5;fontColor=#333333;strokeColor=#666666;" parent="TdxxpBxdUY28s5HQA3Qr-154" vertex="1">
          <mxGeometry width="30" height="30" as="geometry">
            <mxRectangle width="30" height="30" as="alternateBounds" />
          </mxGeometry>
        </mxCell>
        <mxCell id="TdxxpBxdUY28s5HQA3Qr-156" value="Message" style="shape=partialRectangle;overflow=hidden;connectable=0;align=left;top=0;left=0;bottom=0;right=0;spacingLeft=6;swimlaneLine=1;shadow=1;fillColor=#f5f5f5;fontColor=#333333;strokeColor=#666666;" parent="TdxxpBxdUY28s5HQA3Qr-154" vertex="1">
          <mxGeometry x="30" width="209.99999999999977" height="30" as="geometry">
            <mxRectangle width="209.99999999999977" height="30" as="alternateBounds" />
          </mxGeometry>
        </mxCell>
        <mxCell id="TdxxpBxdUY28s5HQA3Qr-163" value="outage_t" style="shape=table;startSize=30;container=1;collapsible=1;childLayout=tableLayout;fixedRows=1;rowLines=0;fontStyle=1;align=center;resizeLast=1;swimlaneLine=1;shadow=1;fillColor=#60a917;fontColor=#ffffff;strokeColor=#2D7600;" parent="1" vertex="1">
          <mxGeometry x="-760" y="960" width="240" height="210" as="geometry" />
        </mxCell>
        <mxCell id="TdxxpBxdUY28s5HQA3Qr-167" value="" style="shape=tableRow;horizontal=0;startSize=0;swimlaneHead=0;swimlaneBody=0;collapsible=0;dropTarget=0;points=[[0,0.5],[1,0.5]];portConstraint=eastwest;top=0;left=0;right=0;bottom=1;swimlaneLine=1;shadow=1;fillColor=#f5f5f5;fontColor=#333333;strokeColor=#666666;" parent="TdxxpBxdUY28s5HQA3Qr-163" vertex="1">
          <mxGeometry y="30" width="240" height="30" as="geometry" />
        </mxCell>
        <mxCell id="TdxxpBxdUY28s5HQA3Qr-168" value="PK" style="shape=partialRectangle;overflow=hidden;connectable=0;top=0;left=0;bottom=0;right=0;fontStyle=1;swimlaneLine=1;shadow=1;fillColor=#f5f5f5;fontColor=#333333;strokeColor=#666666;" parent="TdxxpBxdUY28s5HQA3Qr-167" vertex="1">
          <mxGeometry width="30" height="30" as="geometry">
            <mxRectangle width="30" height="30" as="alternateBounds" />
          </mxGeometry>
        </mxCell>
        <mxCell id="TdxxpBxdUY28s5HQA3Qr-169" value="OutageID" style="shape=partialRectangle;overflow=hidden;connectable=0;align=left;top=0;left=0;bottom=0;right=0;spacingLeft=6;fontStyle=5;swimlaneLine=1;shadow=1;fillColor=#f5f5f5;fontColor=#333333;strokeColor=#666666;" parent="TdxxpBxdUY28s5HQA3Qr-167" vertex="1">
          <mxGeometry x="30" width="210" height="30" as="geometry">
            <mxRectangle width="210" height="30" as="alternateBounds" />
          </mxGeometry>
        </mxCell>
        <mxCell id="TdxxpBxdUY28s5HQA3Qr-170" value="" style="shape=tableRow;horizontal=0;startSize=0;swimlaneHead=0;swimlaneBody=0;collapsible=0;dropTarget=0;points=[[0,0.5],[1,0.5]];portConstraint=eastwest;top=0;left=0;right=0;bottom=0;swimlaneLine=1;shadow=1;fillColor=#f5f5f5;fontColor=#333333;strokeColor=#666666;" parent="TdxxpBxdUY28s5HQA3Qr-163" vertex="1">
          <mxGeometry y="60" width="240" height="30" as="geometry" />
        </mxCell>
        <mxCell id="TdxxpBxdUY28s5HQA3Qr-171" value="" style="shape=partialRectangle;overflow=hidden;connectable=0;top=0;left=0;bottom=0;right=0;swimlaneLine=1;shadow=1;fillColor=#f5f5f5;fontColor=#333333;strokeColor=#666666;" parent="TdxxpBxdUY28s5HQA3Qr-170" vertex="1">
          <mxGeometry width="30" height="30" as="geometry">
            <mxRectangle width="30" height="30" as="alternateBounds" />
          </mxGeometry>
        </mxCell>
        <mxCell id="TdxxpBxdUY28s5HQA3Qr-172" value="Time(Start, End)" style="shape=partialRectangle;overflow=hidden;connectable=0;align=left;top=0;left=0;bottom=0;right=0;spacingLeft=6;swimlaneLine=1;shadow=1;fillColor=#f5f5f5;fontColor=#333333;strokeColor=#666666;" parent="TdxxpBxdUY28s5HQA3Qr-170" vertex="1">
          <mxGeometry x="30" width="210" height="30" as="geometry">
            <mxRectangle width="210" height="30" as="alternateBounds" />
          </mxGeometry>
        </mxCell>
        <mxCell id="TdxxpBxdUY28s5HQA3Qr-176" value="" style="shape=tableRow;horizontal=0;startSize=0;swimlaneHead=0;swimlaneBody=0;collapsible=0;dropTarget=0;points=[[0,0.5],[1,0.5]];portConstraint=eastwest;top=0;left=0;right=0;bottom=0;swimlaneLine=1;shadow=1;fillColor=#f5f5f5;fontColor=#333333;strokeColor=#666666;" parent="TdxxpBxdUY28s5HQA3Qr-163" vertex="1">
          <mxGeometry y="90" width="240" height="30" as="geometry" />
        </mxCell>
        <mxCell id="TdxxpBxdUY28s5HQA3Qr-177" value="" style="shape=partialRectangle;overflow=hidden;connectable=0;top=0;left=0;bottom=0;right=0;swimlaneLine=1;shadow=1;fillColor=#f5f5f5;fontColor=#333333;strokeColor=#666666;" parent="TdxxpBxdUY28s5HQA3Qr-176" vertex="1">
          <mxGeometry width="30" height="30" as="geometry">
            <mxRectangle width="30" height="30" as="alternateBounds" />
          </mxGeometry>
        </mxCell>
        <mxCell id="TdxxpBxdUY28s5HQA3Qr-178" value="Date(Start, End)" style="shape=partialRectangle;overflow=hidden;connectable=0;align=left;top=0;left=0;bottom=0;right=0;spacingLeft=6;swimlaneLine=1;shadow=1;fillColor=#f5f5f5;fontColor=#333333;strokeColor=#666666;" parent="TdxxpBxdUY28s5HQA3Qr-176" vertex="1">
          <mxGeometry x="30" width="210" height="30" as="geometry">
            <mxRectangle width="210" height="30" as="alternateBounds" />
          </mxGeometry>
        </mxCell>
        <mxCell id="TdxxpBxdUY28s5HQA3Qr-182" value="" style="shape=tableRow;horizontal=0;startSize=0;swimlaneHead=0;swimlaneBody=0;collapsible=0;dropTarget=0;points=[[0,0.5],[1,0.5]];portConstraint=eastwest;top=0;left=0;right=0;bottom=0;swimlaneLine=1;shadow=1;fillColor=#f5f5f5;fontColor=#333333;strokeColor=#666666;" parent="TdxxpBxdUY28s5HQA3Qr-163" vertex="1">
          <mxGeometry y="120" width="240" height="30" as="geometry" />
        </mxCell>
        <mxCell id="TdxxpBxdUY28s5HQA3Qr-183" value="" style="shape=partialRectangle;overflow=hidden;connectable=0;top=0;left=0;bottom=0;right=0;swimlaneLine=1;shadow=1;fillColor=#f5f5f5;fontColor=#333333;strokeColor=#666666;" parent="TdxxpBxdUY28s5HQA3Qr-182" vertex="1">
          <mxGeometry width="30" height="30" as="geometry">
            <mxRectangle width="30" height="30" as="alternateBounds" />
          </mxGeometry>
        </mxCell>
        <mxCell id="TdxxpBxdUY28s5HQA3Qr-184" value="Area" style="shape=partialRectangle;overflow=hidden;connectable=0;align=left;top=0;left=0;bottom=0;right=0;spacingLeft=6;swimlaneLine=1;shadow=1;fillColor=#f5f5f5;fontColor=#333333;strokeColor=#666666;" parent="TdxxpBxdUY28s5HQA3Qr-182" vertex="1">
          <mxGeometry x="30" width="210" height="30" as="geometry">
            <mxRectangle width="210" height="30" as="alternateBounds" />
          </mxGeometry>
        </mxCell>
        <mxCell id="zKBm1QHpImw86RAVw3xl-1" value="" style="shape=tableRow;horizontal=0;startSize=0;swimlaneHead=0;swimlaneBody=0;collapsible=0;dropTarget=0;points=[[0,0.5],[1,0.5]];portConstraint=eastwest;top=0;left=0;right=0;bottom=0;swimlaneLine=1;shadow=1;fillColor=#f5f5f5;fontColor=#333333;strokeColor=#666666;" vertex="1" parent="TdxxpBxdUY28s5HQA3Qr-163">
          <mxGeometry y="150" width="240" height="30" as="geometry" />
        </mxCell>
        <mxCell id="zKBm1QHpImw86RAVw3xl-2" value="" style="shape=partialRectangle;overflow=hidden;connectable=0;top=0;left=0;bottom=0;right=0;swimlaneLine=1;shadow=1;fillColor=#f5f5f5;fontColor=#333333;strokeColor=#666666;" vertex="1" parent="zKBm1QHpImw86RAVw3xl-1">
          <mxGeometry width="30" height="30" as="geometry">
            <mxRectangle width="30" height="30" as="alternateBounds" />
          </mxGeometry>
        </mxCell>
        <mxCell id="zKBm1QHpImw86RAVw3xl-3" value="GeoLocation(Latitude, Longitude)" style="shape=partialRectangle;overflow=hidden;connectable=0;align=left;top=0;left=0;bottom=0;right=0;spacingLeft=6;swimlaneLine=1;shadow=1;fillColor=#f5f5f5;fontColor=#333333;strokeColor=#666666;" vertex="1" parent="zKBm1QHpImw86RAVw3xl-1">
          <mxGeometry x="30" width="210" height="30" as="geometry">
            <mxRectangle width="210" height="30" as="alternateBounds" />
          </mxGeometry>
        </mxCell>
        <mxCell id="zKBm1QHpImw86RAVw3xl-5" value="" style="shape=tableRow;horizontal=0;startSize=0;swimlaneHead=0;swimlaneBody=0;collapsible=0;dropTarget=0;points=[[0,0.5],[1,0.5]];portConstraint=eastwest;top=0;left=0;right=0;bottom=0;swimlaneLine=1;shadow=1;fillColor=#f5f5f5;fontColor=#333333;strokeColor=#666666;" vertex="1" parent="TdxxpBxdUY28s5HQA3Qr-163">
          <mxGeometry y="180" width="240" height="30" as="geometry" />
        </mxCell>
        <mxCell id="zKBm1QHpImw86RAVw3xl-6" value="" style="shape=partialRectangle;overflow=hidden;connectable=0;top=0;left=0;bottom=0;right=0;swimlaneLine=1;shadow=1;fillColor=#f5f5f5;fontColor=#333333;strokeColor=#666666;" vertex="1" parent="zKBm1QHpImw86RAVw3xl-5">
          <mxGeometry width="30" height="30" as="geometry">
            <mxRectangle width="30" height="30" as="alternateBounds" />
          </mxGeometry>
        </mxCell>
        <mxCell id="zKBm1QHpImw86RAVw3xl-7" value="Range" style="shape=partialRectangle;overflow=hidden;connectable=0;align=left;top=0;left=0;bottom=0;right=0;spacingLeft=6;swimlaneLine=1;shadow=1;fillColor=#f5f5f5;fontColor=#333333;strokeColor=#666666;" vertex="1" parent="zKBm1QHpImw86RAVw3xl-5">
          <mxGeometry x="30" width="210" height="30" as="geometry">
            <mxRectangle width="210" height="30" as="alternateBounds" />
          </mxGeometry>
        </mxCell>
        <mxCell id="TdxxpBxdUY28s5HQA3Qr-253" value="" style="edgeStyle=orthogonalEdgeStyle;fontSize=12;html=1;endArrow=ERzeroToMany;startArrow=ERmandOne;rounded=0;exitX=1;exitY=0.5;exitDx=0;exitDy=0;entryX=0;entryY=0.5;entryDx=0;entryDy=0;" parent="1" source="TdxxpBxdUY28s5HQA3Qr-5" target="TdxxpBxdUY28s5HQA3Qr-49" edge="1">
          <mxGeometry width="100" height="100" relative="1" as="geometry">
            <mxPoint x="-310" y="380" as="sourcePoint" />
            <mxPoint x="-210" y="280" as="targetPoint" />
          </mxGeometry>
        </mxCell>
        <mxCell id="TdxxpBxdUY28s5HQA3Qr-254" value="" style="edgeStyle=orthogonalEdgeStyle;fontSize=12;html=1;endArrow=ERzeroToMany;startArrow=ERmandOne;rounded=0;exitX=1;exitY=0.667;exitDx=0;exitDy=0;exitPerimeter=0;entryX=0;entryY=0.5;entryDx=0;entryDy=0;" parent="1" source="TdxxpBxdUY28s5HQA3Qr-14" target="TdxxpBxdUY28s5HQA3Qr-83" edge="1">
          <mxGeometry width="100" height="100" relative="1" as="geometry">
            <mxPoint x="-320" y="460" as="sourcePoint" />
            <mxPoint x="-220" y="360" as="targetPoint" />
            <Array as="points">
              <mxPoint x="-410" y="380" />
              <mxPoint x="-410" y="515" />
            </Array>
          </mxGeometry>
        </mxCell>
        <mxCell id="TdxxpBxdUY28s5HQA3Qr-255" value="" style="edgeStyle=orthogonalEdgeStyle;fontSize=12;html=1;endArrow=ERzeroToMany;startArrow=ERmandOne;rounded=0;exitX=1;exitY=0.5;exitDx=0;exitDy=0;entryX=0;entryY=0.5;entryDx=0;entryDy=0;" parent="1" source="TdxxpBxdUY28s5HQA3Qr-20" target="TdxxpBxdUY28s5HQA3Qr-104" edge="1">
          <mxGeometry width="100" height="100" relative="1" as="geometry">
            <mxPoint x="-370" y="640" as="sourcePoint" />
            <mxPoint x="-270" y="540" as="targetPoint" />
            <Array as="points">
              <mxPoint x="-460" y="435" />
              <mxPoint x="-460" y="825" />
            </Array>
          </mxGeometry>
        </mxCell>
        <mxCell id="TdxxpBxdUY28s5HQA3Qr-258" value="" style="fontSize=12;html=1;endArrow=ERzeroToMany;startArrow=ERmandOne;rounded=0;exitX=0.5;exitY=1;exitDx=0;exitDy=0;entryX=0.5;entryY=0;entryDx=0;entryDy=0;" parent="1" source="TdxxpBxdUY28s5HQA3Qr-1" target="TdxxpBxdUY28s5HQA3Qr-135" edge="1">
          <mxGeometry width="100" height="100" relative="1" as="geometry">
            <mxPoint x="-450" y="620" as="sourcePoint" />
            <mxPoint x="-350" y="520" as="targetPoint" />
          </mxGeometry>
        </mxCell>
        <mxCell id="TdxxpBxdUY28s5HQA3Qr-259" value="" style="edgeStyle=orthogonalEdgeStyle;fontSize=12;html=1;endArrow=ERzeroToMany;startArrow=ERmandOne;rounded=0;exitX=0.5;exitY=1;exitDx=0;exitDy=0;entryX=1;entryY=0.5;entryDx=0;entryDy=0;" parent="1" source="TdxxpBxdUY28s5HQA3Qr-32" target="TdxxpBxdUY28s5HQA3Qr-105" edge="1">
          <mxGeometry width="100" height="100" relative="1" as="geometry">
            <mxPoint x="-150" y="540" as="sourcePoint" />
            <mxPoint x="190" y="840" as="targetPoint" />
          </mxGeometry>
        </mxCell>
        <mxCell id="TdxxpBxdUY28s5HQA3Qr-260" value="" style="fontSize=12;html=1;endArrow=ERzeroToMany;startArrow=ERmandOne;rounded=0;entryX=1;entryY=0.5;entryDx=0;entryDy=0;exitX=0;exitY=0.5;exitDx=0;exitDy=0;" parent="1" source="TdxxpBxdUY28s5HQA3Qr-32" target="TdxxpBxdUY28s5HQA3Qr-79" edge="1">
          <mxGeometry width="100" height="100" relative="1" as="geometry">
            <mxPoint x="-70" y="630" as="sourcePoint" />
            <mxPoint x="-50" y="440" as="targetPoint" />
          </mxGeometry>
        </mxCell>
        <mxCell id="TdxxpBxdUY28s5HQA3Qr-261" value="" style="edgeStyle=orthogonalEdgeStyle;fontSize=12;html=1;endArrow=ERzeroToMany;startArrow=ERmandOne;rounded=0;entryX=1;entryY=0.5;entryDx=0;entryDy=0;exitX=0.5;exitY=0;exitDx=0;exitDy=0;" parent="1" source="TdxxpBxdUY28s5HQA3Qr-32" target="TdxxpBxdUY28s5HQA3Qr-49" edge="1">
          <mxGeometry width="100" height="100" relative="1" as="geometry">
            <mxPoint x="-150" y="540" as="sourcePoint" />
            <mxPoint x="-50" y="440" as="targetPoint" />
          </mxGeometry>
        </mxCell>
        <mxCell id="TdxxpBxdUY28s5HQA3Qr-262" value="User can check utility usage" style="text;html=1;align=center;verticalAlign=middle;resizable=0;points=[];autosize=1;strokeColor=none;fillColor=none;rotation=-90;fontSize=10;" parent="1" vertex="1">
          <mxGeometry x="-531" y="230" width="150" height="30" as="geometry" />
        </mxCell>
        <mxCell id="TdxxpBxdUY28s5HQA3Qr-263" value="Utility usage being monitored using IoT" style="text;html=1;align=center;verticalAlign=middle;resizable=0;points=[];autosize=1;strokeColor=none;fillColor=none;rotation=0;fontSize=10;" parent="1" vertex="1">
          <mxGeometry x="-100" y="154" width="200" height="30" as="geometry" />
        </mxCell>
        <mxCell id="TdxxpBxdUY28s5HQA3Qr-264" value="Balance of the IoT Utility&lt;div&gt;Service being recharged&lt;/div&gt;" style="text;html=1;align=center;verticalAlign=middle;resizable=0;points=[];autosize=1;strokeColor=none;fillColor=none;rotation=90;fontSize=10;" parent="1" vertex="1">
          <mxGeometry x="90" y="680" width="130" height="40" as="geometry" />
        </mxCell>
        <mxCell id="TdxxpBxdUY28s5HQA3Qr-272" value="User can check balances for&lt;div&gt;each registered IoT Utility Services&lt;/div&gt;" style="text;html=1;align=left;verticalAlign=middle;resizable=0;points=[];autosize=1;strokeColor=none;fillColor=none;fontSize=10;" parent="1" vertex="1">
          <mxGeometry x="-510" y="340" width="180" height="40" as="geometry" />
        </mxCell>
        <mxCell id="TdxxpBxdUY28s5HQA3Qr-277" value="Users can recharge balance for there IoT Utility Services" style="text;html=1;align=center;verticalAlign=middle;resizable=0;points=[];autosize=1;strokeColor=none;fillColor=none;rotation=90;fontSize=10;" parent="1" vertex="1">
          <mxGeometry x="-580" y="660" width="270" height="30" as="geometry" />
        </mxCell>
        <mxCell id="TdxxpBxdUY28s5HQA3Qr-279" value="IoT monitors usage&lt;div&gt;based on balance&lt;/div&gt;" style="text;html=1;align=left;verticalAlign=middle;resizable=0;points=[];autosize=1;strokeColor=none;fillColor=none;fontSize=10;" parent="1" vertex="1">
          <mxGeometry x="-108" y="516" width="110" height="40" as="geometry" />
        </mxCell>
        <mxCell id="TdxxpBxdUY28s5HQA3Qr-280" value="Users get&lt;div style=&quot;font-size: 10px;&quot;&gt;notification&lt;div style=&quot;font-size: 10px;&quot;&gt;of various&lt;/div&gt;&lt;div style=&quot;font-size: 10px;&quot;&gt;services&lt;/div&gt;&lt;div style=&quot;font-size: 10px;&quot;&gt;(e.g. Outage,&lt;/div&gt;&lt;div style=&quot;font-size: 10px;&quot;&gt;Recharge,&lt;/div&gt;&lt;div style=&quot;font-size: 10px;&quot;&gt;Alert etc.)&lt;/div&gt;&lt;/div&gt;" style="text;html=1;align=left;verticalAlign=middle;resizable=0;points=[];autosize=1;strokeColor=none;fillColor=none;fontSize=10;" parent="1" vertex="1">
          <mxGeometry x="-630" y="490" width="80" height="100" as="geometry" />
        </mxCell>
        <mxCell id="TdxxpBxdUY28s5HQA3Qr-281" value="Outage notifications&lt;div style=&quot;font-size: 10px;&quot;&gt;are being shown&lt;/div&gt;&lt;div style=&quot;font-size: 10px;&quot;&gt;while there is a&lt;/div&gt;&lt;div style=&quot;font-size: 10px;&quot;&gt;outage or will be&lt;/div&gt;" style="text;html=1;align=left;verticalAlign=middle;resizable=0;points=[];autosize=1;strokeColor=none;fillColor=none;fontSize=10;" parent="1" vertex="1">
          <mxGeometry x="-630" y="885" width="110" height="60" as="geometry" />
        </mxCell>
        <mxCell id="zKBm1QHpImw86RAVw3xl-8" value="" style="fontSize=12;html=1;endArrow=ERoneToMany;startArrow=ERzeroToOne;rounded=0;exitX=0.5;exitY=0;exitDx=0;exitDy=0;entryX=0.5;entryY=1;entryDx=0;entryDy=0;" edge="1" parent="1" source="TdxxpBxdUY28s5HQA3Qr-163" target="TdxxpBxdUY28s5HQA3Qr-135">
          <mxGeometry width="100" height="100" relative="1" as="geometry">
            <mxPoint x="-360" y="850" as="sourcePoint" />
            <mxPoint x="-260" y="750" as="targetPoint" />
          </mxGeometry>
        </mxCell>
      </root>
    </mxGraphModel>
  </diagram>
</mxfile>
